/* XPM */
static char *a4669b0bfba84519c664efd2637c23dbV8bRecKsbKmttW6a[] = {
/* columns rows colors chars-per-pixel */
"15 15 4 1 ",
"  c None",
"' c #030303",
". c black",
"X c white",
/* pixels */
"               ",
"      '''      ",
"    ''XXX''    ",
"   'XXXXXXX'   ",
"  'XX.....XX'  ",
"  'X.......X'  ",
" 'XX.......XX' ",
" 'XX.......XX' ",
" 'XX.......XX' ",
"  'X.......X'  ",
"  'XX.....XX'  ",
"   'XXXXXXX'   ",
"    ''XXX''    ",
"      '''      ",
"               "
};
