/* XPM */
static char *e81f29878587453fd305cf798f704acfxMo8rFoTYyPX81hz[] = {
/* columns rows colors chars-per-pixel */
"11 11 3 1 ",
"  c black",
". c #0C0C0C",
"X c #22FF00",
/* pixels */
"    XXX    ",
"  XXXXXXX  ",
" XXXXXXXXX ",
" XXXXXXXXX ",
"XXXXXXX.XXX",
"XX.XXX.XXXX",
"XXX.X.XXXXX",
" XXX.XXXXX ",
" XXXXXXXXX ",
"  XXXXXXX  ",
"    XXX    "
};
